PathFileType	4	(X/Y/Z)	c:/Users/goper/Files/vsCode/490R/osim_files/C08/C08_Slow_04.trc
DataRate	CameraRate	NumFrames	NumMarkers	Units                	OrigDataRate	OrigDataStartFrame	OrigNumFrames
250.00	250.00	8	36	mm	250.0	688	2750
                Frame#	Time	LPSIS			LASIS			LTH1			LTH2			LTH3			LTH4			LLFE			LMFE			LSH1			LSH2			LSH3			LSH4			LLMAL			LMMAL			LCAL			LMTP5			LTOE			LMTP1			RPSIS			RASIS			RTH1			RTH2			RTH3			RTH4			RLFE			RMFE			RSH1			RSH2			RSH3			RSH4			RLMAL			RMMAL			RCAL			RMTP1			RTOE			RMTP5		
		X1	Y1	Z1	X2	Y2	Z2	X3	Y3	Z3	X4	Y4	Z4	X5	Y5	Z5	X6	Y6	Z6	X7	Y7	Z7	X8	Y8	Z8	X9	Y9	Z9	X10	Y10	Z10	X11	Y11	Z11	X12	Y12	Z12	X13	Y13	Z13	X14	Y14	Z14	X15	Y15	Z15	X16	Y16	Z16	X17	Y17	Z17	X18	Y18	Z18	X19	Y19	Z19	X20	Y20	Z20	X21	Y21	Z21	X22	Y22	Z22	X23	Y23	Z23	X24	Y24	Z24	X25	Y25	Z25	X26	Y26	Z26	X27	Y27	Z27	X28	Y28	Z28	X29	Y29	Z29	X30	Y30	Z30	X31	Y31	Z31	X32	Y32	Z32	X33	Y33	Z33	X34	Y34	Z34	X35	Y35	Z35	X36	Y36	Z36

688	2.74800	1960.64661	1051.68884	139.07904	1756.90247	1014.88544	211.23528	1797.84277	742.88867	285.32358	0.00000	0.00000	0.00000	1763.95947	596.34161	260.20169	0.00000	0.00000	0.00000	1753.18945	547.92096	250.19196	1752.85889	538.25543	120.75030	1795.52795	414.86230	257.30957	1787.15759	369.18359	256.80145	1734.96631	422.66840	258.23721	0.00000	0.00000	0.00000	1766.49243	100.50438	201.79391	1739.00891	112.52728	113.55621	1824.42822	77.20857	139.97319	1646.41809	51.45577	231.20833	1582.12634	74.55226	174.48999	0.00000	0.00000	0.00000	1963.39648	1047.42114	78.78241	1775.26697	1010.24634	-25.53510	1841.08069	741.33209	-84.96316	0.00000	0.00000	0.00000	0.00000	0.00000	0.00000	0.00000	0.00000	0.00000	1841.63098	515.07513	-61.82733	0.00000	0.00000	0.00000	1925.61951	482.14322	-78.62218	1949.93811	444.30698	-84.71693	0.00000	0.00000	0.00000	0.00000	0.00000	0.00000	2167.25952	237.05725	-36.61407	2139.32642	210.84326	50.14727	2220.63525	266.60547	34.03012	2120.96997	72.92800	36.42048	0.00000	0.00000	0.00000	2138.93018	100.29971	-76.24435
689	2.75200	1956.80469	1051.95691	139.98720	1753.05896	1014.99152	211.66705	1795.03906	743.13293	285.82578	0.00000	0.00000	0.00000	1761.87573	596.31049	260.68488	0.00000	0.00000	0.00000	1750.76501	547.41327	250.36349	1751.13684	538.18671	121.15618	1794.24011	414.88669	257.67258	1786.12317	369.25189	257.15869	1733.71936	422.56088	258.72903	0.00000	0.00000	0.00000	1766.39758	100.52663	201.84280	1738.88538	112.54045	113.54649	1824.36768	77.25804	140.00066	1646.15686	51.12654	231.01903	1581.98132	74.25954	174.45914	0.00000	0.00000	0.00000	1959.66370	1047.48157	79.71089	1770.86072	1010.16443	-24.55320	1835.33789	741.28436	-84.42397	0.00000	0.00000	0.00000	0.00000	0.00000	0.00000	0.00000	0.00000	0.00000	1833.65869	515.27264	-61.25413	0.00000	0.00000	0.00000	1917.23877	482.77725	-78.22795	1941.72424	445.04266	-84.36908	0.00000	0.00000	0.00000	0.00000	0.00000	0.00000	2160.90820	239.71471	-36.23589	2133.10107	213.39049	50.55613	2214.14624	269.46606	34.50777	2115.17749	75.44057	36.56328	0.00000	0.00000	0.00000	2133.47021	102.99809	-75.95357
690	2.75600	1952.97253	1052.22681	140.81871	1746.65540	1015.50635	212.57181	1792.20532	743.33582	286.32950	0.00000	0.00000	0.00000	1759.79309	596.27399	261.14948	0.00000	0.00000	0.00000	1749.07666	547.37830	250.83347	1749.23218	538.12622	121.59961	1793.13135	415.01358	258.23376	1785.14880	369.34912	257.63123	1732.55933	422.46237	259.28564	0.00000	0.00000	0.00000	1766.29688	100.50864	201.88057	1738.76819	112.56557	113.59626	1824.30701	77.29583	140.02707	1646.08716	51.05467	231.04349	1581.85425	73.96139	174.46156	0.00000	0.00000	0.00000	1955.90247	1047.57104	80.57785	1767.30322	1010.31903	-24.30857	1829.59680	741.33948	-83.84275	0.00000	0.00000	0.00000	0.00000	0.00000	0.00000	0.00000	0.00000	0.00000	1825.54883	515.47833	-60.72989	0.00000	0.00000	0.00000	1908.93481	483.47977	-77.74220	1933.71423	446.07571	-83.89079	0.00000	0.00000	0.00000	0.00000	0.00000	0.00000	2154.46411	242.23843	-35.81139	2126.95801	216.06975	50.98735	2207.61890	272.06827	34.96738	2108.98218	77.99892	36.78833	0.00000	0.00000	0.00000	2127.49561	105.49614	-75.58642
691	2.76000	1949.18823	1052.50464	141.60365	1745.50000	1015.08612	212.48836	1789.43127	743.51471	286.87152	0.00000	0.00000	0.00000	1757.82556	596.28979	261.67981	0.00000	0.00000	0.00000	1747.83594	547.90881	251.60507	1747.39648	538.02460	122.08530	1791.92395	415.12253	258.78589	1784.06494	369.41037	258.11200	1731.32483	422.34961	259.78992	0.00000	0.00000	0.00000	1766.19604	100.51303	201.92842	1738.64014	112.55624	113.63434	1824.29126	77.38593	140.10086	1646.07874	50.97323	231.09012	1581.75269	73.66652	174.43541	0.00000	0.00000	0.00000	1952.21692	1047.64795	81.39401	1763.51123	1010.31226	-24.87589	1823.93555	741.45087	-83.26773	0.00000	0.00000	0.00000	0.00000	0.00000	0.00000	0.00000	0.00000	0.00000	1817.68042	515.90588	-60.20405	0.00000	0.00000	0.00000	1900.71948	484.36203	-77.11813	1925.64844	447.02881	-83.38568	0.00000	0.00000	0.00000	0.00000	0.00000	0.00000	2147.85352	244.59410	-35.37082	2120.44556	218.40018	51.43304	2201.07056	274.55884	35.43690	2102.47778	80.42079	37.08564	0.00000	0.00000	0.00000	2121.24268	107.98287	-75.18073
692	2.76400	1945.45239	1052.75964	142.33101	1741.70300	1015.21106	212.87178	1786.70789	743.74811	287.37357	0.00000	0.00000	0.00000	1755.84473	596.34485	262.22360	0.00000	0.00000	0.00000	1746.06543	547.87665	252.10539	1745.59717	537.97473	122.52041	1790.63892	415.13950	259.32394	1782.89172	369.32718	258.55173	1730.00305	422.15067	260.32098	0.00000	0.00000	0.00000	1766.13049	100.51738	201.99921	1738.56812	112.62315	113.70070	1824.26611	77.41522	140.16589	1646.03284	50.87759	231.15074	1581.68860	73.42278	174.46086	0.00000	0.00000	0.00000	1948.51953	1047.74927	82.16272	1760.23230	1010.71252	-23.89492	1818.26025	741.58850	-82.63797	0.00000	0.00000	0.00000	0.00000	0.00000	0.00000	0.00000	0.00000	0.00000	1809.84021	516.43768	-59.60678	0.00000	0.00000	0.00000	1892.52173	485.20642	-76.46251	1917.70154	448.10968	-82.73054	0.00000	0.00000	0.00000	0.00000	0.00000	0.00000	2141.08887	246.76457	-34.90346	2113.91211	220.70140	51.90627	2194.39502	276.71698	35.86956	2095.64673	82.77763	37.50537	0.00000	0.00000	0.00000	2114.57959	110.36619	-74.76307
693	2.76800	1941.72314	1053.02014	143.00099	1735.02673	1015.81177	213.87628	1784.31677	744.05255	287.74612	1766.25928	666.41211	267.65640	1753.08167	596.30042	261.66656	0.00000	0.00000	0.00000	1743.80884	547.27203	252.28412	1744.07141	537.88171	122.87655	1789.23865	415.10925	259.84491	1781.68323	369.29117	259.00565	1728.69214	421.98969	260.78870	0.00000	0.00000	0.00000	1766.07043	100.55250	202.07309	1738.47205	112.65390	113.75829	1824.20703	77.41660	140.20926	1646.03394	50.80807	231.22202	1581.78564	72.92449	174.73088	0.00000	0.00000	0.00000	1944.82849	1047.86072	82.87257	1757.58435	1011.17523	-24.39229	1812.66724	741.85999	-81.99813	0.00000	0.00000	0.00000	0.00000	0.00000	0.00000	1728.99561	672.12689	-51.28306	1801.88074	516.91370	-59.05689	0.00000	0.00000	0.00000	1884.33777	486.13232	-75.73544	1909.87170	449.34271	-81.96313	0.00000	0.00000	0.00000	0.00000	0.00000	0.00000	2134.16040	248.84756	-34.39252	2107.40625	223.01828	52.45071	2187.62256	278.67929	36.27000	2088.60400	85.02631	38.03691	0.00000	0.00000	0.00000	2107.70190	112.67132	-74.29823
694	2.77200	1938.03491	1053.32764	143.57178	1733.75159	1015.50323	213.87732	1780.79004	744.16229	288.49823	1763.94812	666.53625	268.19791	1751.15320	596.39758	262.25302	0.00000	0.00000	0.00000	1742.08252	547.29761	252.80670	1742.51331	537.79071	123.26150	1787.99158	415.23599	260.42618	1780.53491	369.35648	259.51187	1727.26184	421.79877	261.18134	0.00000	0.00000	0.00000	1766.01404	100.58306	202.13522	1738.39050	112.71173	113.83350	1824.18152	77.47493	140.24661	1645.76807	50.69982	231.22008	1581.62231	72.76031	174.85593	0.00000	0.00000	0.00000	1941.13684	1047.97876	83.52477	1753.27527	1011.09900	-23.52058	1807.03064	742.09424	-81.29919	0.00000	0.00000	0.00000	0.00000	0.00000	0.00000	1722.60205	673.11981	-50.69864	1794.26318	517.68707	-58.41860	0.00000	0.00000	0.00000	1876.18579	487.10245	-74.95290	1901.98657	450.52097	-81.15247	0.00000	0.00000	0.00000	0.00000	0.00000	0.00000	2127.16162	250.90411	-33.82707	2100.67310	225.16631	52.99392	2180.80859	280.52383	36.66996	2081.37256	87.20237	38.56830	0.00000	0.00000	0.00000	2100.46631	114.78127	-73.74050
695	2.77600	1934.37134	1053.61682	144.10539	1729.81641	1015.58600	214.44324	1777.63477	744.33984	289.12863	1761.57300	666.60370	268.67484	1749.13965	596.44263	262.82129	0.00000	0.00000	0.00000	1740.39404	547.27649	253.31134	1740.95398	537.75342	123.66188	1786.50073	415.20251	260.90210	1779.26489	369.35425	259.95206	1725.87451	421.73163	261.56915	0.00000	0.00000	0.00000	1765.92041	100.60584	202.22037	1738.32275	112.76472	113.89563	1824.14893	77.54095	140.30190	1646.00232	50.67168	231.31703	1581.54907	72.52367	174.86378	0.00000	0.00000	0.00000	1937.48206	1048.16870	84.11600	1750.02307	1011.24890	-23.29432	1801.47302	742.44763	-80.63750	0.00000	0.00000	0.00000	0.00000	0.00000	0.00000	1714.35156	672.00433	-47.08447	1786.41638	518.25690	-57.82301	0.00000	0.00000	0.00000	1868.13855	488.11325	-74.06838	1894.09070	451.70358	-80.29569	0.00000	0.00000	0.00000	0.00000	0.00000	0.00000	2119.89453	252.68367	-33.32801	2093.77075	227.12395	53.55359	2173.83813	282.22302	37.07782	2073.84033	89.18246	39.08906	0.00000	0.00000	0.00000	2093.04443	116.73637	-73.13906
